<svg width="1080" height="1080" viewBox="0 0 1080 1080" fill="none" xmlns="http://www.w3.org/2000/svg">
<path d="M624.995 155.5V386.2C624.989 399.099 628.57 411.793 635.407 423.112L869.568 810.688C876.651 822.4 880.242 835.579 879.987 848.928C879.733 862.276 875.641 875.335 868.115 886.819C860.59 898.303 849.889 907.817 837.067 914.423C824.244 921.03 809.741 924.503 794.985 924.5H285.015C270.259 924.503 255.756 921.03 242.933 914.423C230.111 907.817 219.41 898.303 211.885 886.819C204.359 875.335 200.267 862.276 200.013 848.928C199.758 835.579 203.349 822.4 210.432 810.688L444.593 423.112C451.43 411.793 455.011 399.099 455.005 386.2V155.5" stroke="white" stroke-width="40" stroke-linecap="round" stroke-linejoin="round"/>
<rect x="410.363" y="579.227" width="41.3943" height="267.773" rx="20.6972" fill="white"/>
<rect x="627.369" y="579.227" width="41.3943" height="203.449" rx="20.6971" fill="white"/>
<rect x="489.806" y="708.235" width="41.3943" height="138.765" rx="20.6971" fill="white"/>
<rect x="668.763" y="811.225" width="35.7753" height="178.957" rx="17.8876" transform="rotate(90 668.763 811.225)" fill="white"/>
<rect width="38.6869" height="157.694" rx="19.3435" transform="matrix(-0.756591 0.653889 -0.756591 -0.653889 550.58 675.114)" fill="white"/>
<rect width="38.6869" height="142.743" rx="19.3435" transform="matrix(-0.756591 -0.653889 0.756591 -0.653889 569.002 691.231)" fill="white"/>
</svg>
